<svg width="18" height="14" viewBox="0 0 18 14" fill="none" xmlns="http://www.w3.org/2000/svg">
<path d="M16.3212 11.8382C16.3212 12.2047 16.1756 12.5563 15.9164 12.8155C15.6572 13.0747 15.3056 13.2203 14.9391 13.2203H2.50003C2.13347 13.2203 1.78193 13.0747 1.52273 12.8155C1.26354 12.5563 1.11792 12.2047 1.11792 11.8382V4.23653C1.11792 3.86998 1.26354 3.51843 1.52273 3.25923C1.78193 3.00004 2.13347 2.85442 2.50003 2.85442H5.26426L6.64638 0.78125H10.7927L12.1748 2.85442H14.9391C15.3056 2.85442 15.6572 3.00004 15.9164 3.25923C16.1756 3.51843 16.3212 3.86998 16.3212 4.23653V11.8382Z" stroke="black" stroke-width="1.5" stroke-linecap="round" stroke-linejoin="round"/>
<path d="M8.71882 10.4562C10.2455 10.4562 11.483 9.2186 11.483 7.69196C11.483 6.16532 10.2455 4.92773 8.71882 4.92773C7.19218 4.92773 5.95459 6.16532 5.95459 7.69196C5.95459 9.2186 7.19218 10.4562 8.71882 10.4562Z" stroke="black" stroke-width="1.5" stroke-linecap="round" stroke-linejoin="round"/>
</svg>
