<svg width="16" height="16" viewBox="0 0 16 16" fill="none" xmlns="http://www.w3.org/2000/svg">
<path opacity="0.987" fill-rule="evenodd" clip-rule="evenodd" d="M7.209 1.06099C7.934 0.979994 8.363 0.979994 9.142 1.06099C10.5209 1.26509 11.7992 1.90248 12.792 2.88099C12.1211 3.51513 11.4591 4.15852 10.806 4.81099C9.55533 3.75099 8.15933 3.50633 6.618 4.07699C5.48733 4.59699 4.7 5.43966 4.256 6.60499C3.53044 6.06482 2.81433 5.51207 2.108 4.94699C2.05891 4.92116 2.00285 4.9117 1.948 4.91999C3.07 2.75666 4.82333 1.46999 7.208 1.05999" fill="#F44336"/>
<path opacity="0.997" fill-rule="evenodd" clip-rule="evenodd" d="M1.94601 4.92C2.00267 4.91133 2.05634 4.92033 2.10701 4.947C2.81334 5.51208 3.52945 6.06483 4.25501 6.605C4.14083 7.05906 4.06886 7.52269 4.04001 7.99C4.06467 8.442 4.13634 8.88566 4.25501 9.321L2.00001 11.116C1.01801 9.064 1.00001 6.99866 1.94601 4.92Z" fill="#FFC107"/>
<path opacity="0.999" fill-rule="evenodd" clip-rule="evenodd" d="M12.6849 13.29C11.9828 12.6708 11.2477 12.0899 10.4829 11.55C11.2496 11.0087 11.7149 10.266 11.8789 9.32199H8.12195V6.71299C10.2886 6.69499 12.4543 6.71332 14.6189 6.76799C15.0296 8.99799 14.5553 11.0087 13.1959 12.8C13.0343 12.9718 12.8631 13.1354 12.6849 13.29Z" fill="#448AFF"/>
<path opacity="0.993" fill-rule="evenodd" clip-rule="evenodd" d="M4.255 9.32199C5.075 11.36 6.57833 12.3113 8.765 12.176C9.37883 12.1049 9.96735 11.8905 10.483 11.55C11.2483 12.0913 11.9823 12.6713 12.685 13.29C11.5716 14.2904 10.1521 14.8841 8.658 14.974C8.31854 15.0011 7.97746 15.0011 7.638 14.974C5.09267 14.674 3.21333 13.388 2 11.116L4.255 9.32199Z" fill="#43A047"/>
</svg>
