<svg width="14" height="19" viewBox="0 0 14 19" fill="none" xmlns="http://www.w3.org/2000/svg">
<path d="M4.80769 11.125C4.22436 10.5417 3.93269 9.83333 3.93269 9V3C3.93269 2.16667 4.22436 1.45833 4.80769 0.875C5.39103 0.291667 6.09936 0 6.93269 0C7.76603 0 8.47436 0.291667 9.05769 0.875C9.64103 1.45833 9.93269 2.16667 9.93269 3V9C9.93269 9.83333 9.64103 10.5417 9.05769 11.125C8.47436 11.7083 7.76603 12 6.93269 12C6.09936 12 5.39103 11.7083 4.80769 11.125ZM5.93269 18V15.925C4.39936 15.7083 3.08703 15.0583 1.99569 13.975C0.904359 12.8917 0.241692 11.575 0.00769228 10.025C-0.0256411 9.74167 0.0493593 9.5 0.232693 9.3C0.416026 9.1 0.649359 9 0.932692 9C1.21603 9 1.45369 9.096 1.64569 9.288C1.83769 9.48 1.96669 9.71733 2.03269 10C2.26603 11.1667 2.84536 12.125 3.77069 12.875C4.69603 13.625 5.75003 14 6.93269 14C8.13269 14 9.19103 13.621 10.1077 12.863C11.0244 12.105 11.5994 11.1507 11.8327 10C11.8994 9.71667 12.0287 9.47933 12.2207 9.288C12.4127 9.09667 12.65 9.00067 12.9327 9C13.2154 8.99933 13.4487 9.09933 13.6327 9.3C13.8167 9.50067 13.8917 9.74233 13.8577 10.025C13.6244 11.5417 12.966 12.85 11.8827 13.95C10.7994 15.05 9.48269 15.7083 7.93269 15.925V18C7.93269 18.2833 7.83669 18.521 7.64469 18.713C7.45269 18.905 7.21536 19.0007 6.93269 19C6.65003 18.9993 6.41269 18.9033 6.22069 18.712C6.02869 18.5207 5.93269 18.2833 5.93269 18Z" fill="black"/>
</svg>
