<svg width="33" height="33" viewBox="0 0 33 33" fill="none" xmlns="http://www.w3.org/2000/svg">
<path d="M14.1969 5.93588C14.7826 3.52137 18.2174 3.52137 18.8031 5.93588C18.891 6.2986 19.0633 6.63545 19.306 6.919C19.5487 7.20255 19.8548 7.4248 20.1996 7.56765C20.5444 7.7105 20.9181 7.76992 21.2902 7.74107C21.6623 7.71222 22.0223 7.59592 22.341 7.40162C24.4626 6.10912 26.8923 8.53737 25.5998 10.6604C25.4057 10.9789 25.2896 11.3387 25.2608 11.7106C25.2321 12.0824 25.2914 12.4558 25.4341 12.8004C25.5768 13.145 25.7988 13.451 26.082 13.6937C26.3652 13.9363 26.7017 14.1087 27.0641 14.1969C29.4786 14.7826 29.4786 18.2174 27.0641 18.8031C26.7014 18.891 26.3646 19.0633 26.081 19.306C25.7974 19.5487 25.5752 19.8548 25.4323 20.1996C25.2895 20.5444 25.2301 20.9181 25.2589 21.2902C25.2878 21.6623 25.4041 22.0223 25.5984 22.341C26.8909 24.4626 24.4626 26.8923 22.3396 25.5998C22.0211 25.4057 21.6613 25.2896 21.2894 25.2608C20.9176 25.2321 20.5442 25.2914 20.1996 25.4341C19.855 25.5768 19.549 25.7988 19.3063 26.082C19.0637 26.3652 18.8913 26.7017 18.8031 27.0641C18.2174 29.4786 14.7826 29.4786 14.1969 27.0641C14.109 26.7014 13.9367 26.3646 13.694 26.081C13.4513 25.7974 13.1452 25.5752 12.8004 25.4323C12.4556 25.2895 12.0819 25.2301 11.7098 25.2589C11.3377 25.2878 10.9777 25.4041 10.659 25.5984C8.53737 26.8909 6.10775 24.4626 7.40025 22.3396C7.59426 22.0211 7.71038 21.6613 7.73917 21.2894C7.76795 20.9176 7.70858 20.5442 7.5659 20.1996C7.42321 19.855 7.20123 19.549 6.918 19.3063C6.63477 19.0637 6.29828 18.8913 5.93588 18.8031C3.52137 18.2174 3.52137 14.7826 5.93588 14.1969C6.2986 14.109 6.63545 13.9367 6.919 13.694C7.20255 13.4513 7.4248 13.1452 7.56765 12.8004C7.7105 12.4556 7.76992 12.0819 7.74107 11.7098C7.71222 11.3377 7.59592 10.9777 7.40162 10.659C6.10912 8.53737 8.53737 6.10775 10.6604 7.40025C12.0354 8.23625 13.8174 7.4965 14.1969 5.93588Z" stroke="#161515" stroke-width="2" stroke-linecap="round" stroke-linejoin="round"/>
<path d="M12.375 16.5C12.375 17.594 12.8096 18.6432 13.5832 19.4168C14.3568 20.1904 15.406 20.625 16.5 20.625C17.594 20.625 18.6432 20.1904 19.4168 19.4168C20.1904 18.6432 20.625 17.594 20.625 16.5C20.625 15.406 20.1904 14.3568 19.4168 13.5832C18.6432 12.8096 17.594 12.375 16.5 12.375C15.406 12.375 14.3568 12.8096 13.5832 13.5832C12.8096 14.3568 12.375 15.406 12.375 16.5Z" stroke="#161515" stroke-width="2" stroke-linecap="round" stroke-linejoin="round"/>
</svg>
