<svg width="17" height="18" viewBox="0 0 17 18" fill="none" xmlns="http://www.w3.org/2000/svg">
<path d="M11.6463 9.54998C12.067 9.54998 12.4082 9.19181 12.4082 8.74999C12.4082 8.30816 12.067 7.94999 11.6463 7.94999V9.54998ZM0.22316 8.18427C-0.0743866 8.49673 -0.0743866 9.00324 0.22316 9.3157L5.0719 14.4068C5.36944 14.7192 5.85185 14.7192 6.1494 14.4068C6.44693 14.0944 6.44693 13.5879 6.1494 13.2755L1.8394 8.74999L6.1494 4.2245C6.44695 3.91208 6.44695 3.40555 6.1494 3.09313C5.85185 2.7807 5.36945 2.7807 5.0719 3.09313L0.22316 8.18427ZM11.6463 7.94999H0.761904V9.54998H11.6463V7.94999Z" fill="#1D274C"/>
<path d="M8.38094 4.75V3.60714C8.38094 2.02919 9.59922 0.75 11.102 0.75H13.2789C14.7817 0.75 16 2.02919 16 3.60714V13.8929C16 15.4708 14.7817 16.75 13.2789 16.75H11.102C9.59922 16.75 8.38094 15.4708 8.38094 13.8929V13.3214" stroke="#1D274C" stroke-width="1.5" stroke-linecap="round"/>
</svg>
