<svg width="1144" height="1120" viewBox="0 0 1144 1120" fill="none" xmlns="http://www.w3.org/2000/svg">
<ellipse cx="572" cy="560" rx="572" ry="560" fill="#FF0000"/>
<path d="M722.675 665.475C735.175 677.975 735.175 698.275 722.675 710.775C710.175 723.275 689.875 723.275 677.375 710.775L572.075 605.375L466.675 710.675C454.175 723.175 433.875 723.175 421.375 710.675C408.875 698.175 408.875 677.875 421.375 665.375L526.775 560.075L421.475 454.675C408.975 442.175 408.975 421.875 421.475 409.375C433.975 396.875 454.275 396.875 466.775 409.375L572.075 514.775L677.475 409.475C689.975 396.975 710.275 396.975 722.775 409.475C735.275 421.975 735.275 442.275 722.775 454.775L617.375 560.075L722.675 665.475Z" fill="white"/>
</svg>
